<svg width="48" height="44" viewBox="0 0 48 44" fill="none" xmlns="http://www.w3.org/2000/svg" role="img" aria-label="HappyTails">
  <defs>
    <linearGradient id="htWarm" x1="6" y1="2" x2="42" y2="42" gradientUnits="userSpaceOnUse">
      <stop stop-color="#F8915A"/>
      <stop offset="1" stop-color="#F26B47"/>
    </linearGradient>
  </defs>
  <!-- cat-head mark: two ears + rounded head -->
  <path fill="url(#htWarm)" d="M11 3c0-1 1.1-1.6 2-1.1l9.2 5.6h3.6L35 1.9c.9-.5 2 .1 2 1.1v9.3c2.7 2.4 4.4 5.7 4.4 9.5v9.6c0 5.6-4.8 10.2-10.7 10.2H18.3C12.4 41.6 7.6 37 7.6 31.4v-9.6c0-3.8 1.7-7.1 4.4-9.5V3Z"/>
  <!-- eyes + nose (negative space) -->
  <circle cx="18.4" cy="24.2" r="2.5" fill="#fff"/>
  <circle cx="29.6" cy="24.2" r="2.5" fill="#fff"/>
  <path d="M24 28.4c1.6 0 2.6 1.1 2.6 2.2 0 1.3-1.2 2.2-2.6 2.2s-2.6-.9-2.6-2.2c0-1.1 1-2.2 2.6-2.2Z" fill="#fff" fill-opacity=".85"/>
</svg>
